<svg xmlns="http://www.w3.org/2000/svg" viewBox="0 0 235.86 148.78"><defs><style>.cls-1{fill:#8ecbb4;}.cls-2{stroke:#8ecbb4;stroke-miterlimit:10;stroke-width:4px;}</style></defs><g id="Calque_2" data-name="Calque 2"><g id="Calque_1-2" data-name="Calque 1"><path class="cls-1" d="M59.79,122.26H31.15V82.42H59.61C77.07,82.42,84.7,90,84.7,101.8A23.27,23.27,0,0,1,83,111.12L110.05,81A36.55,36.55,0,0,0,94.36,69.39c9.92-4.54,18.69-15.28,18.69-31.83C113.05,18.49,99.59,0,64.13,0H0V146.78H50.81l25.32-28.09C72.14,121,66.78,122.26,59.79,122.26ZM31.15,24.52H61.39c12.24,0,20.4,5.54,20.4,16.3,0,10.31-6.23,17.08-21.31,17.08H31.15Z"/><path class="cls-2" d="M182.83,5.08,161.74,28.49c3.79,13,10,31.48,19,58.37H140.65C147.16,66.24,153,47.76,157,33.73L113.2,82.37,91.32,146.78h31.21L134,112.87H187.6l12.07,33.91H233Z"/></g></g></svg>